<?xml version="1.0" encoding="UTF-8"?>
<svg id="Layer_1" data-name="Layer 1" xmlns="http://www.w3.org/2000/svg" viewBox="0 0 100 100">
  <defs>
    <style>
      .cls-1 {
        fill: #e8c46c;
        stroke-width: 0px;
      }
    </style>
  </defs>
  <path class="cls-1" d="M22.02,14.28v31.97h-7.34V14.28H3.12v-5.97h30.59v5.97h-11.7Z"/>
  <path class="cls-1" d="M61.42,8.31v5.91h-7.39v26.14h7.39v5.89h-21.88v-5.89h7.22V14.22h-7.28v-5.91h21.94Z"/>
  <path class="cls-1" d="M77.69,46.25h-7.38V8.31h12.97c1.91-.03,3.8.27,5.61.89,1.57.55,3.02,1.4,4.27,2.5,1.2,1.09,2.14,2.43,2.77,3.92.64,1.55.97,3.22.95,4.91.02,1.61-.31,3.21-.95,4.69-.63,1.42-1.55,2.7-2.7,3.73-1.25,1.09-2.7,1.93-4.27,2.47-1.8.62-3.7.92-5.61.89h-5.66v13.94ZM83.34,26.39c.93.02,1.85-.14,2.72-.47.72-.28,1.38-.71,1.92-1.27.5-.54.89-1.18,1.14-1.87.25-.71.38-1.45.38-2.2-.01-.84-.16-1.67-.44-2.47-.24-.74-.63-1.43-1.14-2.02-.54-.58-1.19-1.04-1.92-1.34-.86-.35-1.79-.52-2.72-.5h-5.59v12.14h5.66Z"/>
  <path class="cls-1" d="M11.17,91.69h-3.12v-37.94h11.94c1.6.02,3.18.3,4.69.83,1.4.48,2.7,1.24,3.81,2.22,1.09.97,1.96,2.15,2.55,3.48.66,1.47.99,3.07.95,4.69.04,1.61-.29,3.22-.95,4.69-.59,1.33-1.47,2.51-2.58,3.45-1.1.97-2.39,1.71-3.78,2.19-1.51.52-3.09.79-4.69.78h-8.81v15.61ZM20.02,73.44c1.17-.03,2.33-.25,3.42-.66,1.04-.37,1.99-.94,2.81-1.67.8-.73,1.44-1.61,1.88-2.59.47-1.1.71-2.29.69-3.48.02-1.21-.21-2.41-.67-3.53-.87-2.08-2.57-3.69-4.69-4.44-1.12-.42-2.3-.63-3.5-.64h-8.78v17.02h8.84Z"/>
  <path class="cls-1" d="M42.8,73.44v15.45h19.28v2.73h-22.39v-37.87h22.28v2.75h-19.17v14.27h16.73v2.67h-16.73Z"/>
  <path class="cls-1" d="M74.87,75.81v15.87h-3v-37.94h10.72c1.59.02,3.17.29,4.69.8,1.41.48,2.73,1.22,3.87,2.17,1.1.96,1.99,2.14,2.59,3.47.66,1.47.98,3.07.95,4.69.02,1.19-.17,2.36-.56,3.48-.37,1.02-.9,1.98-1.56,2.84-.69.86-1.5,1.61-2.41,2.23-.94.65-1.95,1.2-3.02,1.64l8.67,16.27v.33h-3.25l-8.31-15.86h-9.39ZM83.17,73.16c1.13-.02,2.25-.25,3.3-.66.99-.39,1.9-.97,2.67-1.7.75-.74,1.34-1.62,1.75-2.59.44-1.06.65-2.19.64-3.33.02-1.22-.22-2.42-.69-3.55-.45-1.01-1.1-1.92-1.92-2.66-.83-.71-1.8-1.24-2.84-1.56-1.15-.4-2.35-.6-3.56-.61h-7.64v16.66h8.3Z"/>
</svg>